<svg width="161" height="191" viewBox="0 0 161 191" fill="none" xmlns="http://www.w3.org/2000/svg">
<path d="M0.386604 81.0436L30.3794 81.0436L30.3794 157.289L0.386602 140.073L0.386604 81.0436Z" fill="#FE2FFE"/>
<path d="M20.0532 151.662L20.0533 0.126434H52.3114V80.5178H83.6977L83.6977 186.71L20.0532 151.662Z" fill="#FE2FFE"/>
<path d="M90.4623 116.707L157.333 153.778L90.4623 190.848L90.4623 116.707Z" fill="#FE2FFE"/>
<path d="M90.4412 190.847L23.5708 153.777L90.4412 116.706L90.4412 190.847Z" fill="#FE2FFE"/>
<path d="M57.8928 129.252V65.304L90.4665 88.6488L123.04 65.304V129.252H57.8928Z" fill="#FE2FFE"/>
<path d="M87.7445 104.136L57.7749 104.136L57.7749 40.4616L87.7445 40.4616L87.7445 104.136Z" fill="#FE2FFE"/>
<path d="M123.163 104.136L93.1935 104.136L93.1935 40.4616L123.163 40.4616L123.163 104.136Z" fill="#FE2FFE"/>
<path d="M160.865 0.1306L160.865 71.9134L160.865 151.756L112.914 178.196L112.914 80.5218L128.607 80.5218L128.607 0.130597L160.865 0.1306Z" fill="#FE2FFE"/>
</svg>
